REM DIRINDEX 1\8,1\2\11,1\3\12,1\3\14,1\5\15,1\5\16,1\6\17,1\6\18,1\4\19,1\4\20,1\4\21,1\4\22,1\7\23,1\7\24,1\7\25,1\2\9\26,1\2\9\27,1\2\10\28,1\2\10\29,1\2\10\30,1\2\10\31,1\2\10\32,1\3\13\33,1\3\13\34,1\3\13\35
REM DIRNAME folder01,folder02,folder03,folder04,folder05,folder06,folder07,folder08,folder09,folder10,folder11,folder12,folder13,folder14,folder15,folder16,folder17,folder18,folder19,folder20,folder21,folder22,folder23,folder24,folder25,folder26,folder27,folder28,folder29,folder30,folder31,folder32,folder33,folder34,folder35
TITLE ""
FILE "93 093_UNIT3_SET5.mp3" MP3
  TRACK 01 AUDIO
    TITLE "14:cjc123_8004"
    INDEX 01 00:00:00
  TRACK 02 AUDIO
    TITLE "0:"
    INDEX 01 00:02:51
  TRACK 03 AUDIO
    TITLE "33:cjc123_8005"
    INDEX 01 00:03:35
  TRACK 04 AUDIO
    TITLE "0:"
    INDEX 01 00:04:64
  TRACK 05 AUDIO
    TITLE "34:cjc123_8006"
    INDEX 01 00:05:09
  TRACK 06 AUDIO
    TITLE "0:"
    INDEX 01 00:06:24
  TRACK 07 AUDIO
    TITLE "35:cjc123_8007"
    INDEX 01 00:06:73
  TRACK 08 AUDIO
    TITLE "0:"
    INDEX 01 00:11:03
  TRACK 09 AUDIO
    TITLE "33:cjc123_8008"
    INDEX 01 00:11:64
  TRACK 10 AUDIO
    TITLE "0:"
    INDEX 01 00:13:06
  TRACK 11 AUDIO
    TITLE "34:cjc123_8009"
    INDEX 01 00:13:30
  TRACK 12 AUDIO
    TITLE "0:"
    INDEX 01 00:14:58
  TRACK 13 AUDIO
    TITLE "35:cjc123_8010"
    INDEX 01 00:15:32
  TRACK 14 AUDIO
    TITLE "0:"
    INDEX 01 00:19:69
  TRACK 15 AUDIO
    TITLE "33:cjc123_8011"
    INDEX 01 00:20:55
  TRACK 16 AUDIO
    TITLE "0:"
    INDEX 01 00:21:45
  TRACK 17 AUDIO
    TITLE "34:cjc123_8012"
    INDEX 01 00:21:64
  TRACK 18 AUDIO
    TITLE "0:"
    INDEX 01 00:22:70
  TRACK 19 AUDIO
    TITLE "35:cjc123_8013"
    INDEX 01 00:23:42
  TRACK 20 AUDIO
    TITLE "0:"
    INDEX 01 00:27:22
  TRACK 21 AUDIO
    TITLE "33:cjc123_8014"
    INDEX 01 00:28:00
  TRACK 22 AUDIO
    TITLE "0:"
    INDEX 01 00:29:13
  TRACK 23 AUDIO
    TITLE "34:cjc123_8015"
    INDEX 01 00:29:31
  TRACK 24 AUDIO
    TITLE "0:"
    INDEX 01 00:30:48
  TRACK 25 AUDIO
    TITLE "35:cjc123_8016"
    INDEX 01 00:31:24
  TRACK 26 AUDIO
    TITLE "0:"
    INDEX 01 00:34:63
  TRACK 27 AUDIO
    TITLE "33:cjc123_8017"
    INDEX 01 00:35:37
  TRACK 28 AUDIO
    TITLE "0:"
    INDEX 01 00:36:54
  TRACK 29 AUDIO
    TITLE "34:cjc123_8018"
    INDEX 01 00:36:74
  TRACK 30 AUDIO
    TITLE "0:"
    INDEX 01 00:38:10
  TRACK 31 AUDIO
    TITLE "35:cjc123_8019"
    INDEX 01 00:38:53
  TRACK 32 AUDIO
    TITLE "0:"
    INDEX 01 00:41:73
  TRACK 33 AUDIO
    TITLE "33:cjc123_8020"
    INDEX 01 00:42:51
  TRACK 34 AUDIO
    TITLE "0:"
    INDEX 01 00:43:66
  TRACK 35 AUDIO
    TITLE "34:cjc123_8021"
    INDEX 01 00:44:05
  TRACK 36 AUDIO
    TITLE "0:"
    INDEX 01 00:45:12
  TRACK 37 AUDIO
    TITLE "35:cjc123_8022"
    INDEX 01 00:45:65
  TRACK 38 AUDIO
    TITLE "0:"
    INDEX 01 00:49:45
  TRACK 39 AUDIO
    TITLE "33:cjc123_8023"
    INDEX 01 00:50:27
  TRACK 40 AUDIO
    TITLE "0:"
    INDEX 01 00:51:54
  TRACK 41 AUDIO
    TITLE "34:cjc123_8024"
    INDEX 01 00:51:65
  TRACK 42 AUDIO
    TITLE "0:"
    INDEX 01 00:53:19
  TRACK 43 AUDIO
    TITLE "35:cjc123_8025"
    INDEX 01 00:53:68
  TRACK 44 AUDIO
    TITLE "0:"
    INDEX 01 00:56:57
  TRACK 45 AUDIO
    TITLE "33:cjc123_8026"
    INDEX 01 00:57:31
  TRACK 46 AUDIO
    TITLE "0:"
    INDEX 01 00:58:30
  TRACK 47 AUDIO
    TITLE "34:cjc123_8027"
    INDEX 01 00:58:62
  TRACK 48 AUDIO
    TITLE "0:"
    INDEX 01 01:00:00
  TRACK 49 AUDIO
    TITLE "35:cjc123_8028"
    INDEX 01 01:00:45
  TRACK 50 AUDIO
    TITLE "0:"
    INDEX 01 01:04:37
  TRACK 51 AUDIO
    TITLE "33:cjc123_8029"
    INDEX 01 01:05:09
  TRACK 52 AUDIO
    TITLE "0:"
    INDEX 01 01:06:24
  TRACK 53 AUDIO
    TITLE "34:cjc123_8030"
    INDEX 01 01:06:40
  TRACK 54 AUDIO
    TITLE "0:"
    INDEX 01 01:07:57
  TRACK 55 AUDIO
    TITLE "35:cjc123_8031"
    INDEX 01 01:08:36
  TRACK 56 AUDIO
    TITLE "0:"
    INDEX 01 01:11:45
  TRACK 57 AUDIO
    TITLE "33:cjc123_8032"
    INDEX 01 01:12:19
  TRACK 58 AUDIO
    TITLE "0:"
    INDEX 01 01:13:30
  TRACK 59 AUDIO
    TITLE "34:cjc123_8033"
    INDEX 01 01:13:44
  TRACK 60 AUDIO
    TITLE "0:"
    INDEX 01 01:14:49
  TRACK 61 AUDIO
    TITLE "35:cjc123_8034"
    INDEX 01 01:15:23
  TRACK 62 AUDIO
    TITLE "0:"
    INDEX 01 01:19:15
  TRACK 63 AUDIO
    TITLE "33:cjc123_8035"
    INDEX 01 01:19:68
  TRACK 64 AUDIO
    TITLE "0:"
    INDEX 01 01:21:12
  TRACK 65 AUDIO
    TITLE "34:cjc123_8036"
    INDEX 01 01:21:25
  TRACK 66 AUDIO
    TITLE "0:"
    INDEX 01 01:22:39
  TRACK 67 AUDIO
    TITLE "35:cjc123_8037"
    INDEX 01 01:23:13
  TRACK 68 AUDIO
    TITLE "0:"
    INDEX 01 01:26:48
  TRACK 69 AUDIO
    TITLE "33:cjc123_8038"
    INDEX 01 01:27:24
  TRACK 70 AUDIO
    TITLE "0:"
    INDEX 01 01:28:16
  TRACK 71 AUDIO
    TITLE "34:cjc123_8039"
    INDEX 01 01:28:33
  TRACK 72 AUDIO
    TITLE "0:"
    INDEX 01 01:29:27
  TRACK 73 AUDIO
    TITLE "35:cjc123_8040"
    INDEX 01 01:30:05
  TRACK 74 AUDIO
    TITLE "0:"
    INDEX 01 01:33:27
  TRACK 75 AUDIO
    TITLE "33:cjc123_8041"
    INDEX 01 01:34:01
  TRACK 76 AUDIO
    TITLE "0:"
    INDEX 01 01:35:06
  TRACK 77 AUDIO
    TITLE "34:cjc123_8042"
    INDEX 01 01:35:16
  TRACK 78 AUDIO
    TITLE "0:"
    INDEX 01 01:36:25
  TRACK 79 AUDIO
    TITLE "35:cjc123_8043"
    INDEX 01 01:36:68
  TRACK 80 AUDIO
    TITLE "0:"
    INDEX 01 01:39:72
  TRACK 81 AUDIO
    TITLE "33:cjc123_8044"
    INDEX 01 01:40:42
  TRACK 82 AUDIO
    TITLE "0:"
    INDEX 01 01:41:56
  TRACK 83 AUDIO
    TITLE "34:cjc123_8045"
    INDEX 01 01:41:69
  TRACK 84 AUDIO
    TITLE "0:"
    INDEX 01 01:43:07
  TRACK 85 AUDIO
    TITLE "35:cjc123_8046"
    INDEX 01 01:43:56
  TRACK 86 AUDIO
    TITLE "0:"
    INDEX 01 01:46:51
  TRACK 87 AUDIO
    TITLE "33:cjc123_8047"
    INDEX 01 01:47:42
  TRACK 88 AUDIO
    TITLE "0:"
    INDEX 01 01:48:60
  TRACK 89 AUDIO
    TITLE "34:cjc123_8048"
    INDEX 01 01:48:69
  TRACK 90 AUDIO
    TITLE "0:"
    INDEX 01 01:50:15
  TRACK 91 AUDIO
    TITLE "35:cjc123_8049"
    INDEX 01 01:50:66
  TRACK 92 AUDIO
    TITLE "0:"
    INDEX 01 01:53:33
